<?xml version="1.0" standalone="no"?>
<!DOCTYPE svg PUBLIC "-//W3C//DTD SVG 20010904//EN"
 "http://www.w3.org/TR/2001/REC-SVG-20010904/DTD/svg10.dtd">
<svg version="1.0" xmlns="http://www.w3.org/2000/svg"
 width="540.000000pt" height="540.000000pt" viewBox="0 0 540.000000 540.000000"
 preserveAspectRatio="xMidYMid meet">
<metadata>
Created by potrace 1.11, written by Peter Selinger 2001-2013
</metadata>
<g transform="translate(0.000000,540.000000) scale(0.100000,-0.100000)"
fill="#000000" stroke="none">
<path d="M1445 5101 c-78 -46 -419 -240 -520 -296 -43 -23 -134 -75 -143 -80
-1 -1 8 -26 21 -56 36 -81 63 -165 82 -254 10 -44 22 -96 27 -115 5 -19 12
-123 15 -230 5 -185 -1 -291 -27 -475 -19 -131 -55 -432 -70 -585 -26 -274
-50 -619 -50 -740 0 -148 28 -448 56 -605 18 -95 84 -296 126 -380 44 -86 110
-199 120 -203 4 -2 8 -8 8 -13 0 -33 192 -255 326 -379 276 -254 586 -388
1064 -461 178 -27 265 -19 625 56 11 3 58 16 105 31 47 14 94 28 105 31 11 3
25 9 30 13 6 3 33 15 60 25 257 93 621 403 797 678 14 23 31 47 36 53 37 42
135 260 187 419 93 282 106 857 35 1505 -6 58 -13 123 -15 145 -2 22 -9 76
-15 120 -6 44 -15 114 -21 155 -5 41 -17 127 -25 190 -25 187 -29 446 -9 591
22 168 82 386 122 444 20 30 16 40 -24 61 -21 11 -60 33 -88 49 -27 15 -75 41
-105 58 -30 16 -59 33 -65 37 -5 4 -30 19 -55 32 -25 14 -76 43 -115 65 -38
22 -90 51 -115 65 -25 14 -73 41 -106 61 l-62 35 -48 -37 c-105 -79 -155 -111
-267 -174 -144 -82 -262 -129 -387 -153 -14 -3 -43 -9 -65 -15 -22 -5 -109
-16 -193 -24 -133 -13 -171 -13 -310 0 -86 8 -175 19 -197 24 -22 6 -71 17
-110 27 -87 20 -196 60 -255 92 -134 73 -250 147 -337 214 -34 26 -64 48 -65
47 -2 0 -39 -22 -83 -48z m1719 -667 c18 -7 21 -36 7 -62 -13 -27 -22 -102
-12 -102 5 0 11 15 13 33 2 25 8 33 27 35 37 6 42 -9 26 -71 -20 -78 -19 -131
1 -65 13 42 16 46 39 40 30 -8 30 -6 14 -91 -12 -69 -12 -70 18 -122 16 -29
34 -54 39 -56 12 -4 74 103 74 127 0 11 -7 45 -15 76 -8 32 -14 59 -12 60 1 1
14 5 30 9 24 7 28 4 33 -24 4 -17 11 -34 15 -37 12 -7 11 0 -7 75 -16 61 -16
65 2 78 29 21 40 16 52 -24 10 -36 10 -35 5 17 -3 30 -9 65 -14 76 -10 27 -3
34 31 34 25 0 28 -4 39 -60 7 -34 17 -60 24 -60 7 0 34 7 61 15 55 17 66 14
66 -20 0 -20 -9 -26 -70 -45 -72 -22 -109 -46 -43 -28 31 8 39 7 50 -8 21 -28
12 -37 -65 -62 -40 -13 -72 -28 -72 -33 0 -6 8 -5 19 1 23 12 61 13 61 3 0 -5
3 -18 6 -30 5 -17 2 -23 -9 -23 -23 0 -121 -32 -134 -44 -12 -11 -63 -101 -63
-110 0 -3 32 -6 71 -6 l71 0 59 52 60 52 21 -22 22 -22 -29 -30 c-49 -52 -13
-33 42 22 l53 52 22 -22 22 -22 -29 -30 c-45 -47 -18 -35 46 20 54 47 57 48
73 31 9 -10 16 -21 16 -24 0 -4 -20 -25 -45 -48 l-46 -42 46 -47 c44 -45 45
-47 27 -63 -10 -9 -22 -17 -25 -17 -4 0 -32 23 -62 50 -30 28 -61 50 -68 50
-6 0 3 -12 21 -26 36 -29 39 -40 16 -66 -16 -17 -20 -15 -76 37 -33 30 -65 55
-71 55 -7 0 3 -13 21 -28 37 -31 39 -42 14 -65 -17 -15 -22 -13 -76 38 l-58
55 -75 0 c-41 0 -72 -3 -70 -7 2 -5 20 -35 41 -69 36 -59 38 -61 111 -83 l74
-22 -10 -28 c-10 -28 -12 -29 -46 -19 -33 9 -62 4 -32 -6 8 -2 40 -12 72 -22
64 -19 71 -25 62 -55 -7 -22 -33 -23 -80 -4 -18 8 -18 7 -6 -8 7 -9 18 -17 24
-17 6 0 37 -8 69 -17 55 -17 59 -19 53 -43 -4 -14 -9 -27 -11 -29 -2 -2 -32 3
-66 13 -64 18 -77 14 -78 -25 0 -9 -5 -30 -11 -47 -10 -28 -14 -31 -37 -26
-15 4 -28 8 -29 8 -1 1 4 26 12 56 8 30 14 66 14 80 -1 20 -4 18 -12 -12 -9
-31 -15 -37 -35 -35 -34 2 -36 16 -18 90 19 73 19 77 7 77 -5 0 -11 -18 -15
-39 -6 -39 -6 -40 -36 -29 -21 7 -29 15 -26 27 33 121 32 125 -22 214 l-23 39
-35 -57 c-38 -64 -40 -86 -20 -165 8 -30 13 -56 11 -58 -1 -2 -15 -4 -31 -5
-24 -2 -29 3 -39 37 -19 67 -23 25 -5 -49 10 -38 14 -73 11 -77 -4 -4 -18 -9
-31 -10 -21 -3 -26 2 -28 27 -2 17 -8 34 -13 40 -13 13 -11 -9 6 -84 16 -68
12 -80 -26 -81 -15 0 -39 57 -39 94 0 25 -23 29 -76 11 -49 -17 -58 -14 -68
21 -5 17 -1 24 21 32 26 9 67 21 101 28 17 3 27 12 21 19 -3 2 -19 -1 -37 -7
-36 -14 -38 -13 -47 23 -6 25 -3 26 69 48 42 12 76 25 76 30 0 5 -13 4 -29 -2
-37 -14 -61 -3 -61 26 0 21 8 27 59 41 70 20 89 35 125 99 l27 47 -78 0 -77 0
-53 -52 c-51 -51 -53 -51 -73 -33 -26 24 -25 31 8 60 15 13 22 25 16 25 -5 0
-35 -22 -66 -50 -53 -47 -56 -48 -72 -31 -22 24 -20 32 12 58 15 12 22 22 15
23 -6 0 -36 -22 -66 -49 l-54 -50 -21 22 -22 21 46 47 46 47 -41 37 c-46 42
-49 54 -23 78 18 16 22 14 79 -38 68 -61 96 -74 43 -20 -28 29 -31 37 -20 50
20 24 35 18 96 -35 31 -28 59 -48 62 -45 3 3 -7 14 -21 26 -31 24 -33 36 -11
61 16 17 20 15 76 -37 l59 -55 70 0 c38 0 69 3 69 6 0 4 -13 28 -28 53 -16 25
-31 53 -34 61 -6 15 -40 30 -116 50 -39 10 -42 13 -36 38 9 36 6 35 53 19 22
-8 41 -11 41 -6 0 6 -6 11 -12 13 -7 3 -40 12 -73 22 -74 21 -80 26 -65 54 10
19 17 21 52 15 29 -5 39 -4 34 4 -4 6 -15 11 -24 11 -9 0 -39 8 -67 18 -43 16
-50 22 -47 42 4 34 7 35 66 17 29 -9 57 -17 62 -17 6 0 16 27 23 60 13 59 21
67 55 54z m-1613 -136 c12 -40 26 -77 30 -83 3 -5 10 -25 14 -42 l7 -33 374 0
374 0 0 115 0 115 65 0 65 0 0 -355 0 -355 -65 0 -65 0 0 170 0 170 -349 0
-349 0 35 -97 c19 -54 39 -107 43 -118 10 -23 40 -113 40 -120 0 -3 -37 -5
-83 -5 l-82 0 -129 338 c-70 185 -130 345 -133 355 -5 15 4 17 90 17 l96 0 22
-72z m2669 -444 c6 -76 15 -173 19 -214 46 -382 83 -791 102 -1125 12 -214 6
-568 -10 -650 -6 -27 -17 -86 -25 -130 -20 -101 -97 -336 -108 -329 -9 6 -11
2554 -2 2579 4 9 8 14 10 12 2 -2 9 -66 14 -143z m-3130 -1159 c0 -712 -2
-1295 -4 -1295 -6 0 -65 163 -86 240 -68 246 -79 560 -41 1140 10 145 17 219
41 445 5 50 15 137 21 195 6 58 15 134 19 170 5 36 14 140 21 233 7 92 16 167
21 167 4 0 8 -583 8 -1295z m254 626 l86 -224 0 -1093 c0 -602 -3 -1094 -6
-1094 -8 0 -84 86 -131 149 l-43 56 0 1219 c0 671 2 1217 4 1215 3 -3 43 -105
90 -228z m2644 -2270 c-23 -30 -64 -78 -90 -106 l-48 -50 0 1096 0 1097 76
198 c42 110 81 210 87 224 9 19 13 -261 15 -1189 l2 -1214 -42 -56z m-1508
2334 l0 -55 -296 0 c-233 0 -295 -3 -291 -12 2 -7 17 -50 32 -95 l28 -83 144
0 143 0 0 -50 0 -50 -118 0 c-65 0 -121 -2 -124 -5 -3 -3 9 -47 27 -98 l32
-92 211 -3 212 -2 0 -60 0 -60 -267 2 -266 3 -27 75 c-15 41 -30 82 -33 90 -3
8 -13 38 -22 65 -10 28 -21 59 -25 70 -9 22 -82 216 -124 330 -14 39 -26 74
-26 78 0 4 178 7 395 7 l395 0 0 -55z m-830 -853 c0 -7 5 -20 10 -30 6 -9 37
-87 70 -171 l60 -155 0 -783 0 -783 -42 26 c-24 15 -67 45 -95 66 l-53 39 0
957 1 957 24 -55 c13 -30 24 -61 25 -68z m2016 -1804 c-8 -5 -21 -14 -28 -21
-7 -6 -41 -31 -75 -54 l-63 -43 0 788 c0 746 1 790 19 837 10 28 32 87 50 132
17 46 40 103 51 127 11 25 20 52 20 60 0 8 4 17 9 21 5 3 13 20 18 38 4 18 9
-394 11 -923 2 -827 0 -955 -12 -962z m-1480 1755 c3 -10 10 -27 15 -38 4 -11
17 -47 28 -80 35 -109 110 -318 116 -323 3 -3 5 99 5 226 l0 232 65 0 65 0 0
-576 c0 -316 -4 -573 -9 -570 -4 3 -16 27 -25 53 -10 26 -21 57 -26 68 -4 11
-38 101 -75 200 -36 99 -93 250 -125 335 -46 123 -152 409 -178 478 -3 9 14
12 67 12 59 0 73 -3 77 -17z m-189 -837 c7 -16 13 -33 13 -39 0 -5 7 -23 15
-40 8 -18 35 -85 60 -150 l45 -118 0 -419 c0 -375 -2 -420 -16 -420 -8 0 -49
14 -90 31 l-74 31 1 611 c0 665 -4 621 46 513z m1333 -516 l0 -609 -32 -15
c-18 -9 -59 -24 -90 -35 l-58 -20 0 415 0 415 31 82 c17 45 37 98 44 117 8 19
33 86 57 147 24 62 44 113 46 113 1 0 2 -274 2 -610z m-931 -525 c5 -11 15
-38 24 -60 8 -22 25 -66 37 -98 13 -32 21 -60 18 -62 -6 -6 -156 12 -169 20
-5 4 -9 102 -9 228 l1 222 44 -115 c25 -63 49 -124 54 -135z m591 26 l0 -219
-32 -10 c-34 -11 -158 -26 -158 -19 0 2 17 48 39 103 107 274 129 330 134 347
4 9 9 17 12 17 3 0 5 -99 5 -219z"/>
</g>
</svg>
