<svg xmlns="http://www.w3.org/2000/svg" height="2267.84" width="2267.84" xmlns:v="https://vecta.io/nano"><path d="M1134.242 2074.628c.84.12 1.68.32 2.52.333 24.302.2 48.56-.545 72.8-2.48 21.043-1.667 42.006-3.974 62.862-7.12 29.078-4.4 57.868-10.293 86.312-17.773 57.484-15.133 112.65-36.227 165.338-63.826 78.19-40.986 147.005-94.133 206.358-159.466 51.965-57.227 93.94-121.12 126.79-191.052 23.443-49.88 41.67-101.6 55.165-155.026 6.998-27.706 12.703-55.652 17.238-83.84 2.95-18.307 5.217-36.707 7.096-55.147 2.017-19.72 3.367-39.473 4.37-59.256.9-17.9.626-35.82.403-53.722-.18-14.268-.82-28.543-1.78-42.778-1.17-17.212-2.477-34.42-4.48-51.564l-5.65-49.533-7.18-51.27-9.503-63.85-10.838-70.104-8.223-58.225-7.123-55.79-6.29-65.516c-1.683-22.08-2.755-44.216-3.77-66.337-.53-11.283-.543-22.58-.53-33.878.014-15.986.14-31.972.988-47.93.32-5.97.348-11.937.807-17.878l4.577-50.908c1.544-12.91 3.325-25.795 5.732-38.567 5.315-28.104 13.3-55.485 23.597-82.156l27.63-70.817c2.226-5.746 3.492-4.786-3.27-8.417L1625.877 134.43c-1.113-.598-2.393-.988-3.38-1.753-2-1.53-3.534-.9-5.092.584-.612.598-1.322 1.085-1.976 1.628-14 11.506-28.3 22.623-42.894 33.39-37.97 28.02-77.7 53.162-120.264 73.71-46.887 22.623-95.946 38.58-147.002 48.487-28.057 5.44-56.367 9.057-84.853 11.214-22.087 1.67-44.214 2.755-66.38 2.824-6.602.028-13.2.32-19.8.473-.632-.083-1.26-.237-1.895-.25l-47.296-.96c-17.464-.737-34.904-1.78-52.292-3.437-20.365-1.948-40.626-4.703-60.775-8.334-27.505-4.967-54.563-11.63-81.16-20.202-46.465-14.984-90.22-35.798-131.855-61.2-36.658-22.344-71.172-47.694-104.462-74.755-7.015-5.704-4.384-5.217-11.954-1.183l-310.42 166.29c-1.126.598-2.24 1.238-3.332 1.892-1.056.626-1.357 1.572-.918 2.713l28.693 73.17c13.774 35.73 23.413 72.543 28.364 110.525 3.03 23.25 5.153 46.595 6.26 70 .806 17.016 1.28 34.06 1.537 51.103.178 11.923-.142 23.86-.65 35.784l-1.373 35.756-2.11 33.81-3.38 37.565-3.06 29.245-5.882 46.93-5.894 42.42-8.142 54.372-15.242 99.83-6.94 50.667-5.816 47.587c-1.757 16.737-3.3 33.497-4.48 50.296-1.213 17.433-2.236 34.87-2.482 52.34-.487 34.55.487 69.036 3.922 103.45 1.926 19.3 4.067 38.577 7.01 57.75 4.49 29.267 10.266 58.293 17.436 87.054 16.456 66.026 40.026 129.345 71.645 189.625 40.577 77.373 92.58 146.038 156.652 205.48 38.43 35.652 80.227 66.812 125.3 93.612 51.688 30.732 106.29 54.92 163.645 72.934 31.537 9.892 63.564 17.813 96.08 23.786 16.98 3.12 34.024 5.774 51.164 7.866 17.983 2.2 36.003 3.826 54.086 4.974 11.06.707 22.126 1.2 33.196 1.386 8.94.147 17.9.508 26.838-.266zM0 .016h2267.824V2267.84H0V.016" fill="#fff"/><path d="M1196.88 1999.494c11.22-.093 21.383-1.133 31.51-2.253 15.46-1.693 30.867-3.867 46.3-5.827 1.056-.147 2.12-.24 3.164-.453 2.007-.4 2.535-1 2.647-2.933.06-1.067.03-2.133.03-3.2l-.03-179.12c0-.693.58-1.733-1.253-2.253l-82.365 196.04zm142.17-21.6c1.96.253 3.747-.533 5.533-1.053 13.72-3.947 27.36-8.133 40.813-12.92 9.16-3.267 7.693-.96 7.707-10.987l.013-407.6c0-.853-.013-1.707-.067-2.56 0-.12-.28-.347-.413-.333-.373.053-.947.08-1.08.32-.413.733-.653 1.573-.987 2.36l-50.267 119.533c-1.373 3.253-1.72 6.493-1.72 9.947l.04 296.906c0 2.107-.347 4.267.427 6.387zm169.466-711.33c-2.573 1.66-2.72 3.725-3.413 5.387l-48.533 115.412c-1.933 4.587-2.88 9.16-2.88 14.187l.08 526.44c0 1.493-.067 2.987.027 4.467.067 1.16-.467 2.507 1.107 3.6l6.187-2.787c13.707-6.413 27.24-13.16 40.48-20.467 8.4-4.64 6.893-2.227 6.893-11.6l.053-634.637zm294.04-419.307v724.958c.013.427 0 .853.067 1.28.013.147.227.387.347.387.387-.027 1-.013 1.107-.227.653-1.333 1.2-2.72 1.773-4.093 8.8-20.813 16.653-41.973 23.8-63.4 10.92-32.8 19.667-66.12 25.04-100.32l7.787-55.067c1.92-16.747 3.44-33.52 4.507-50.325 1.333-20.864 1.427-41.763 1-62.667-.693-33.475-1.827-66.922-4.347-100.32-1.693-22.324-3.733-44.605-6.307-66.845-3.067-26.472-6.933-52.816-11.707-79.033-5.16-28.313-11.507-56.347-19.667-83.942-5.627-19.013-12.16-37.707-20.227-55.84-.64-1.453-.84-3.267-3.173-4.547zm-743.643 790.17l-.025-468.275c.007-1.657-.924-2.21-2.427-2.192-1.492.016-2.985-.01-4.48-.01-13.86-.001-27.724-.001-41.585 0l-4.48.023c-1.463.02-2.432.59-2.408 2.228l.072 5.115.66 24.297 1.912 92.733 2.02 87.6c.02 1 .876 2.427-.607 3.173-1.7-1.413-1.872-3.453-2.505-5.2l-74.67-206.68c-1.17-3.215-1.237-3.19-4.547-3.287-.213-.007-.428-.003-.64-.003-17.275 0-34.55-.01-51.823.016-1.203.003-2.52-.335-3.56.68-.5 1.116.16 2.073.507 3.024 9.987 27.188 184.294 460.82 188.58 466.753zm566.844-634.258c-2.24 1.92-2.507 3.387-3.053 4.71l-48.747 116.006c-1.707 4.036-2.493 7.99-2.493 12.348l.053 726.806c0 1.48-.053 2.987.027 4.467.027.787-.293 1.72.627 2.28 1.027.627 1.547-.24 2.147-.747l46.88-39.613c5.347-4.627 4.547-2.947 4.547-10.307l.013-815.95zM859.21 971.48c2.255-.9 4.627-.46 6.94-.46l93.408-.025 5.116-.073c1.272-.055 1.853-.93 1.94-2.08.096-1.273.06-2.557.06-3.836l-.003-36.467c-.01-6.387.56-5.907-5.784-5.907h-119.53c-.632-1.24-1.22-2.147-1.576-3.133L814.405 849.2c-.303-.84-.415-1.627.317-2.813l240.854-.013c3-.08 3.305-.32 3.312-3.253l.012-41.587c0-.64.073-1.333-.152-1.893-.207-.52-.72-1.173-1.195-1.253-1.243-.24-2.537-.24-3.813-.253l-71-.667-160.566-1.053-95.96-.493c-1.793-.013-3.692-.373-5.76.68l2.215 5.56 113.836 284.05c3.243 8.084 1.152 6.84 9.803 6.847l206 .017c4.353-.073 4.363-.08 4.445-4.133.02-1.067.004-2.133.004-3.2l-.008-33.268c-.027-8.765.94-7.75-7.915-7.755l-156.108-.01c-1.92 0-3.84.01-5.757-.03-1.436-.03-2.357-.727-2.728-2.18-.21-.82-.62-1.587-.908-2.388l-22.965-63.7c-.553-1.545-1.628-3.047-1.17-4.92zm882.4-254.503c-2.107 1.533-2.36 3.507-3.053 5.147l-47.92 113.613c-2.12 5-3.16 9.973-3.16 15.427l.093 907.17c.04.987-.267 2.2 1.84 2.707.267-.413.68-1.16 1.213-1.787 16.36-19.133 32.107-38.72 46.053-59.72 3.707-5.56 5.413-11.027 5.4-17.747l-.147-958.998c-.013-1.787.187-3.627-.32-5.813zM722.794 596.898c2.707-.947 5.057-.533 7.356-.533l255.882-.027c4.855 0 4.96-.213 4.908 4.893v115.786c0 1.493-.037 2.987.024 4.467.09 2.2.555 2.707 2.544 2.813 1.276.067 2.56.027 3.837.027l53.736-.013c8.905-.027 7.815 1.267 7.817-7.76V439.565c-.01-.64.045-1.333-.192-1.893-.215-.507-.733-1.12-1.215-1.227-1.028-.2-2.12-.133-3.184-.133-19.83-.013-39.66-.013-59.492 0-1.065 0-2.136-.04-3.195.067-1.23.107-1.86.88-1.88 2.107l-.05 5.12-.027 87c.003 1.52-.68 2.4-2.275 2.373l-8.31-.173-83.158-.28-199.58-.533c-3.988-.027-4.03-.067-5.225-4.013l-7.676-25.707-18.93-63.68c-1.053-3.613-2.017-3.6-4.893-3.547-.64.013-1.28 0-1.92 0-25.375 0-50.75-.013-76.124.013-1.664 0-3.38-.333-5.167.507.303 2.773 1.72 5.187 2.748 7.707l115.14 282.106c1.415 3.453 1.475 3.44 5.097 3.4l65.877-.88c1.593-.027 3.273.187 5.17-.613l-6.88-18.907-6.897-18.56-6.796-18.6-6.857-18.587-6.9-18.56-6.78-18.6c-2.2-6.16-4.943-12.147-6.533-18.573zm411.378 575.872l.005 811.99c0 2.133.095 4.267.135 6.387.01.52.245.867.763.853.365-.013.95-.133 1.052-.373l3.643-8.853 107.894-257.653 66.785-159.84 29.215-69.546 29.24-70.213L1592.89 900.2l19.827-47.827 22.8-54.2 22.827-54.88 35.667-84.866 44.067-105.586 35.16-83.693 25.093-60.173 29.133-69.573c.413-.973.867-1.947 1.187-2.96.413-1.32.227-2.533-1.013-3.387-.693-.48-1.427-.933-2.16-1.373l-39.893-24.213-52.627-31.6-48.907-29.093-60.68-35.56c-3.707-2.093-7.427-4.187-11.253-6.08-3.773-1.853-4.253-1.68-7.213 1.32-1.8 1.827-3.507 3.733-5.28 5.587-7.8 8.187-16.08 15.893-24.867 23-17.787 14.36-36.88 26.773-57.067 37.52-21.853 11.64-44.573 21.333-67.88 29.68-25.907 9.267-52.293 16.853-79.133 22.893l-35.613 7.533c-11.497 2.187-23.06 4.067-34.627 5.827-10.94 1.68-21.912 3.147-32.893 4.52-8.66 1.08-17.347 1.96-26.032 2.813l-26.07 2.307c-2.123.173-4.264.133-6.385.32-13.54 1.24-27.115 1.84-40.704 2.187l-31.25 1.12c-2.253.08-2.8.72-2.888 3.267-.08 2.347-.04 4.693-.04 7.04l-.001 810.71zm.067-867.778l19.8-.48c22.165-.067 44.293-1.16 66.38-2.827 28.485-2.16 56.796-5.773 84.853-11.213 51.056-9.907 100.11-25.867 147.002-48.493 42.573-20.547 82.293-45.693 120.266-73.706a1046.66 1046.66 0 0 0 42.893-33.4c.653-.533 1.36-1.027 1.973-1.613 1.56-1.48 3.107-2.12 5.093-.6.987.773 2.267 1.16 3.387 1.76l310.306 166.306c6.773 3.64 5.507 2.667 3.28 8.413l-27.64 70.813c-10.293 26.68-18.28 54.053-23.587 82.173-2.413 12.773-4.2 25.64-5.733 38.547-2.013 16.933-3.28 33.92-4.587 50.92-.453 5.933-.48 11.92-.8 17.867-.853 15.973-.973 31.96-.987 47.933-.013 11.293 0 22.613.52 33.893l3.773 66.32c1.667 21.88 3.893 43.72 6.293 65.52 2.053 18.64 4.613 37.213 7.12 55.8l8.227 58.227 10.84 70.102 9.493 63.852 7.187 51.27 5.653 49.533c2 17.145 3.307 34.353 4.467 51.565.96 14.236 1.613 28.51 1.787 42.78.227 17.903.493 35.823-.4 53.723-1 19.783-2.36 39.536-4.373 59.256-1.88 18.44-4.147 36.84-7.093 55.147-4.533 28.187-10.24 56.133-17.24 83.84-13.493 53.427-31.72 105.146-55.16 155.026-32.853 69.933-74.826 133.826-126.8 191.053-59.347 65.333-128.16 118.48-206.36 159.466-52.68 27.6-107.853 48.693-165.333 63.827-28.444 7.48-57.235 13.373-86.313 17.773-20.856 3.147-41.82 5.453-62.86 7.12-24.24 1.933-48.5 2.68-72.8 2.48-.84-.013-1.68-.213-2.523-.333l-.075-7.68.04-65.893c.016-3.48-.557-6.693-1.936-9.893l-12.667-30.04-34.453-82.586L441.442 340.178c-2.404-5.76-2.316-5.973 2.713-9.267 1.96-1.293 3.965-2.507 5.977-3.707l23.052-13.773 72.293-43.547 66.493-39.547 41.592-23.867c8.02-4.413 7.388-3.36 12.385 1.947 8.783 9.32 18 18.187 27.93 26.28 18.076 14.72 37.66 27.16 58.203 38.133 21.857 11.667 44.695 21.08 67.98 29.44 26.095 9.36 52.74 16.827 79.758 23.013 14.945 3.427 29.95 6.547 45.077 9.04l32.788 5.253 38 4.813c5.705.68 11.44 1.12 17.168 1.613l40.103 3.293c8.067.587 16.16.6 24.244 1.16 10.19.693 20.445.467 30.673.6 6.345.08 6.3.013 6.3-6.413l.065-39.653" fill="#02390c"/><path d="M988.23 1803.4l.008 183.506c.087 3.267.392 3.747 3.455 4.2l20.892 2.88c13.72 1.92 27.5 3.293 41.295 4.533 5.68.507 11.368.933 17.025.893.125-.72.377-1.2.243-1.52l-81.496-193.666c-.116-.28-.632-.387-1.42-.827zm-58.503 174.466c.96-2 .516-4.147.516-6.213l.08-296.746c.003-4.16-.883-7.92-2.487-11.693l-49.724-118.346c-.46-1.093-.487-2.573-2.48-2.507l.001 411.132c0 1.493.075 2.987-.016 4.467-.133 2.187.5 3.733 2.86 4.24.824.187 1.6.613 2.393.893 14.483 5.04 29.103 9.64 43.83 13.907 1.595.467 3.2 1.213 5.03.867zm-169.412-711.573l.023 640.493c-.024 1.387.373 2.48 1.687 3.147.76.373 1.484.84 2.23 1.24 15.295 8.467 30.92 16.28 46.772 23.627 1.097.507 2.187 1.427 3.943.773l.16-6.693.052-527.772c.004-4.333-.684-8.333-2.388-12.373L763.8 1272.1c-.724-1.72-1.092-3.673-3.484-5.805zm-294.37-418.33c-.875.307-1.147.307-1.204.427l-1.937 4.027c-8.55 19.32-15.364 39.267-21.204 59.547-14.308 49.7-23.025 100.47-29.36 151.697-2.276 18.403-4.048 36.863-5.637 55.343-1.936 22.52-3.297 45.072-4.343 67.64-.73 15.76-1.005 31.54-1.416 47.313-.892 34.148.284 68.226 3.833 102.206 2.236 21.413 5 42.747 8.48 64.013 4.708 28.84 10.755 57.333 19.412 85.28 8.96 28.92 19.1 57.4 30.868 85.293.492 1.16.597 2.787 2.507 3.253V847.964zm176.937 154.83V1817.2c0 1.493.13 3-.025 4.48-.276 2.613.83 4.427 2.763 6.067l15.98 13.787 26.092 21.627 7.775 6.613c.655.547 1.793-.04 1.82-.92l.1-6.4.053-725.446c.003-4.56-.737-8.76-2.52-12.983l-48.753-116.012c-.64-1.527-.88-3.313-3.288-5.22zM528.315 717.55c-.403.027-.805.04-1.207.053l-.193 6.187-.04 50.547-.001 907.238c0 1.707.108 3.427-.023 5.12-.24 3.12.736 5.707 2.424 8.36 14.473 22.72 31.252 43.68 48.817 64.04.63.72 1.093 1.827 2.313 1.68.26-.16.585-.267.6-.373.093-2.12.203-4.253.203-6.387l.056-904.038c.001-4.56-.787-8.747-2.587-12.973L528.315 717.55zM1134.24 305l-.065 39.653c0 6.427.045 6.493-6.3 6.413-10.228-.133-20.483.093-30.673-.6-8.083-.56-16.177-.573-24.244-1.16l-40.103-3.293-17.168-1.613-38-4.813c-10.957-1.547-21.867-3.453-32.788-5.253-15.128-2.493-30.132-5.613-45.077-9.04-27.017-6.187-53.664-13.653-79.758-23.013-23.287-8.36-46.124-17.773-67.98-29.44-20.543-10.973-40.127-23.413-58.203-38.133-9.932-8.093-19.148-16.96-27.93-26.28-4.997-5.307-4.364-6.36-12.385-1.947-13.997 7.72-27.82 15.747-41.592 23.867l-66.493 39.547-72.293 43.547-23.052 13.773c-2.012 1.2-4.02 2.413-5.977 3.707-5.03 3.293-5.117 3.507-2.713 9.267l29.12 69.573L712.5 988.228l47.5 113.164 41.617 99.68 48.47 115.524 29.712 71.408 22.575 53.613 22.875 54.853 29.2 69.546 22.38 53.693 108.342 258.826 34.453 82.586 12.667 30.04c1.38 3.2 1.952 6.413 1.936 9.893l-.04 65.893.075 7.68c-8.937.773-17.897.413-26.837.267-11.07-.187-22.135-.68-33.196-1.387-18.083-1.147-36.104-2.773-54.087-4.973-17.14-2.093-34.184-4.747-51.164-7.867-32.516-5.973-64.544-13.893-96.08-23.787-57.355-18.013-111.958-42.2-163.646-72.933-45.063-26.8-86.86-57.96-125.3-93.613-64.072-59.44-116.076-128.106-156.653-205.48-31.62-60.28-55.2-123.6-71.646-189.626-7.168-28.76-12.944-57.787-17.436-87.053-2.94-19.173-5.083-38.44-7-57.75-3.435-34.413-4.408-68.9-3.92-103.45.247-17.47 1.27-34.907 2.483-52.34 1.17-16.8 2.723-33.56 4.48-50.297 1.67-15.9 3.75-31.74 5.815-47.587l6.94-50.667 15.243-99.83 8.14-54.373 5.893-42.413 5.883-46.933c1.16-9.733 2.124-19.493 3.06-29.253l3.38-37.56 2.1-33.8c.8-11.92.864-23.853 1.373-35.76.5-11.933.83-23.867.65-35.787l-1.536-51.12c-1.107-23.413-3.23-46.76-6.26-70-4.952-37.987-14.6-74.8-28.364-110.52l-28.693-73.173c-.44-1.147-.14-2.08.917-2.72a79.32 79.32 0 0 1 3.332-1.88l310.428-166.3c7.57-4.04 4.94-4.52 11.953 1.187 33.3 27.053 67.804 52.4 104.462 74.746 41.636 25.387 85.4 46.2 131.856 61.187 26.596 8.573 53.655 15.24 81.16 20.2 20.148 3.64 40.4 6.387 60.775 8.333 17.4 1.667 34.83 2.707 52.293 3.44 15.765.667 31.532.667 47.296.973.633 0 1.263.16 1.895.253m317.6 161.04l-13.453 23.4c-.827 1.413-.253 2.413.667 3.387l22.68 23.733-6.867 11.76c-.52.893-1.427.893-2.16.267-1.133-.973-2.173-2.04-3.227-3.107l-16.68-16.8c-1.013-1.013-1.773-2.44-3.427-2.627-.347.253-.8.413-.987.733l-12.173 21.027c-1.267 2.227-1.24 2.467.627 4.427l20.787 21.733c1 1.013 1.347 2.12.56 3.427l-1.253 2.227-27.2 47.053c-.72 1.253-1.187 2.747-2.8 3.52l-2.067-3.16-28.493-49.253c-.907-1.52-.84-2.76.453-3.973l2.68-2.76 17.24-18.027c2.72-2.88 2.72-2.933.667-6.533l-10.56-18.267c-.493-.84-.72-2.053-2.347-2.24-.48.4-1.173.853-1.747 1.44l-17.133 17.253c-5.84 5.853-4.947 6.067-8.867-.947-4.933-8.827-5.387-5.693 1.453-13.053l16.773-17.613c1.84-1.933 1.853-2.133.56-4.4l-9.28-16.053c-1.173-2-1.973-4.28-4.253-6.107l-23.68 23.853c-1.987-1.187-2.627-2.853-3.333-4.36-1.333-2.84-4.577-5.2-3.95-8.413.55-2.813 3.67-4.533 5.7-6.68l15.92-16.64c1.147-1.187 1.733-2.307.773-3.933l-12.2-21.013c-.867-1.493-1.653-1.547-2.987-.213l-18.507 18.6c-1.3 1.307-2.348 3.04-4.673 3.587l-3.584-5.907c-1.364-2.133-2.247-4.6-4.104-6.36-7.197 3.093-20.345 10.947-23.523 14.067 1.133 1.987 2.363 3.973 3.432 6.053 1.116 2.16 2.927 4.067 3.16 6.333-1.148 1.267-2.22 1.4-3.245 1.667l-25.348 6.64c-1.345.36-2.988.32-3.884 2.213l12.023 20.88c1.77 3.04 1.9 3.107 5.684 2.213l18.628-4.533c3.9-.84 7.616-2.68 11.757-2.173 2.685 3.093 4.2 6.893 6.35 10.307a2.64 2.64 0 0 1 .275.573c.305.88.255 1.707-.776 2.013-1.835.56-3.695 1.027-5.548 1.507l-25.787 6.813c0 .56-.073.8.01.973 3.776 7.893 8.52 15.227 12.853 22.8.8 1.413 2.04 1.187 3.348.867l21.708-5.4 8.1-1.853c1.14-.24 2.145.08 2.763 1.08 1.117 1.813 2.2 3.667 3.208 5.533 1.07 1.96 2.6 3.733 2.963 6.24-1.533.52-2.712 1-3.93 1.32l-24.725 6.48c-1.413.373-2.96.48-4.02 2.107l12.072 20.92c1.805 3.107 2.02 3.147 5.643 2.347.832-.173 1.637-.48 2.465-.68l25.443-6.253c1.747-.44 2.88-.08 3.707 1.453.293.573.627 1.12.947 1.667l27.8 48.187c.507.867 1.387 1.68.827 2.987-1.453 1.04-3.2.547-4.813.547h-50.548c-2.32 0-5.007.867-6.883-.52-2.08-1.52-2.012-4.507-2.72-6.92L1310 594.18c-.84-2.813-1.017-2.907-4.065-2.933-5.545-.04-11.1-.053-16.636.013-2.745.027-5.53-.4-8.2.373-.447 1.4-.092 2.653.237 3.88l5.165 19.12c.824 3.213 2.676 6.24 1.903 9.773-3.323 1.147-6.75.267-10.12.52-.847.067-1.707.027-2.556-.04-1.123-.08-2.02-.493-2.36-1.72-.397-1.44-.868-2.853-1.285-4.28l-6.98-23.933c-1.083-3.653-1.147-3.68-4.715-3.707-7.037-.04-14.077-.027-21.115 0-1.227.013-2.543-.293-3.907.893l5.784 21.387c.876 3.6 2.87 7.027 2.14 10.947-3.776.96-7.617.267-11.425.453-.212.013-.425 0-.64-.013-1.4-.053-2.373-.547-2.773-2.067-.707-2.68-1.58-5.307-2.36-7.973l-6.892-23.6-28.8-.027 8.777 32.84c-1.98 1.213-3.728.787-5.4.84-2.557.067-5.12.04-7.677.053-1.563.013-2.33.867-2.336 2.373l.003 23.027c.012 2.027.46 2.373 2.852 2.413l12.056.013c.75 2.84-.54 4.987-1.103 7.2l-6.5 24.053c-.555 2.067-.095 2.68 2.107 2.693h23.035c2.737-.027 2.95-.173 3.677-2.56l5.84-19.6c1.168-3.813 1.656-7.867 3.83-11.36 4.22-.893 8.48-.253 12.723-.347.408 0 .82.213 1.295.333.643 2.427-.65 4.573-1.212 6.773l-6.5 24.053c-.557 2.08-.1 2.693 2.1 2.707l23.673.013c1.744 0 2.6-.84 3.096-2.547l7.365-25.147c2.145-7 .54-6.293 7.932-6.2 2.863.04 5.867-.893 8.6.733.503 2.88-.96 5.413-1.617 8.053-1.853 7.44-4.015 14.8-5.983 22.213-.54 2.027.07 2.827 2.1 2.853l19.836.027c6.093-.067 5.872 1.173 7.788-5.68l7.483-25.787c.487-1.693 1.428-2.507 3.17-2.467 1.067.027 2.133 0 3.2 0h52.473c1.28 0 2.56 0 3.827.093 1.187.08 1.293.973.973 1.8-.387.987-.96 1.907-1.493 2.827l-26.853 46.507c-.427.733-.88 1.453-1.28 2.213-.84 1.587-2.16 1.893-3.773 1.467l-3.093-.8-25.463-6.187c-3-.72-3.1-.707-4.605 1.84l-11.524 19.933c-.435.747-.807 1.493-.46 2.693l10.865 2.947c3.5.933 7.047 1.707 10.5 2.76 3.56 1.08 7.388 1.413 10.73 3.267-.413 2.747-1.96 4.573-3.15 6.533-1.296 2.16-1.863 5.453-4.28 6.04-2.23.547-4.932-.667-7.387-1.253l-22.967-5.64c-3.188-.76-3.5-.587-5.148 2.2l-10.557 18.267c-.604 1.053-1.456 2.04-1.2 3.773 10.48 3.56 21.65 5.373 32.773 9.213l-6.62 11.36c-.635 1.093-1.63 1.28-2.735 1.067-1.044-.2-2.063-.533-3.097-.787l-26.067-6.4c-2.864-.693-3.193-.587-4.645 1.893l-11.513 19.933c-1.133 1.987-.875 2.667 1.207 3.213l25.345 6.653c1.748.467 3.628.72 5.3 1.96-1.904 4.8-5.03 8.627-7.08 13.44l23.16 13.373c1.847-1.027 2.36-2.493 3.12-3.76l4.197-7.173c.988-1.627 1.728-1.787 2.96-.64 1.25 1.16 2.432 2.387 3.635 3.6l17.136 17.253c2 2 2.44 1.96 3.787-.333l11.507-19.933c1.333-2.307 1.307-2.56-.453-4.427l-17.707-18.493-3.503-3.72c-.836-.907-.868-1.987-.263-2.947 2.245-3.573 3.82-7.587 6.992-11.133l24.333 24.52 13.613-23.72c.827-1.453-.173-2.387-1.053-3.32L1360.93 770c-2.707-2.947-6.173-5.28-7.867-9.107l5.933-10.56c1.133-1.947 1.747-2.013 3.373-.4l19.853 19.973c.867.853 1.573 2.107 3.467 1.733l12.347-21.373c1.4-2.467 1.373-2.64-.8-4.933l-13.733-14.32-7.053-7.413c-.84-.893-.907-1.88-.36-2.92.387-.76.813-1.493 1.24-2.227l27.52-47.613c.64-1.107 1.173-2.28 2.32-3.013 1.707 1.093 2.32 3 3.267 4.627l27.533 47.6c.893 1.507.84 2.76-.453 3.987-.933.88-1.787 1.84-2.667 2.76l-17.267 18.027c-2.72 2.853-2.72 2.907-.653 6.507l10.227 17.72c2.107 3.6 2.173 3.627 4.947.867l14-14.053c2.547-2.44 4.427-5.693 8-6.96 2.64 2.547 3.693 6.12 5.773 9.053.12.173.2.373.307.56 1.467 2.72 1.52 2.853-.48 4.973l-18.16 18.933c-1.04 1.08-2.067 2.16-3.053 3.28-.627.693-.707 1.507-.28 2.347.107.2.16.4.267.587l13.4 23.16 24.093-24.307c2.28 1.4 2.96 3.507 3.96 5.333 4.84 8.68 5.347 5.973-1.373 13.12l-16.8 17.573c-1.827 1.92-1.853 2.173-.56 4.427l11.84 20.48c.893 1.533 1.667 1.613 2.973.373 1.547-1.48 3.027-3.013 4.533-4.52l16.693-16.787c1.24-1.227 2.04-1.08 2.987.48l6.467 10.867c6.44-2.573 20.693-11 23.72-13.96-1.84-4.467-5.307-8.147-6.627-13.173l10.04-2.773 20.4-5.333c2.093-.56 2.4-1.28 1.293-3.2l-11.8-20.507c-.907-1.613-2.107-1.92-3.72-1.52l-11.787 2.92-17.36 4.333c-1.587.387-2.853.187-3.76-1.453-1.933-3.533-4-7-5.947-10.36 1.347-1.547 2.853-1.707 4.293-2.08l24.72-6.493c1.36-.36 2.947-.387 3.773-2.227l-12.36-21.493a8.16 8.16 0 0 0-.72-1.053c-.573-.707-1.293-1.12-2.213-.933l-4.373.933-21.72 5.36c-6.613 1.627-6.627 1.627-9.893-4.027l-2.547-4.427c-.627-1.093-1.44-2.147-.787-3.72l31.707-8.453c.107-.587.253-.853.173-1l-12.853-22.773c-.76-1.36-2.04-1.24-3.373-.907l-16.12 4-13.027 3.213c-1.653.4-2.933.013-3.747-1.56-.293-.56-.64-1.107-.96-1.653l-27.48-47.64c-.587-1.013-1.72-1.987-1.12-3.453.347-.187.68-.52 1.013-.52l58.867-.067c2.827.013 2.907.107 3.827 3.227l7.533 25.76c.467 1.627.8 3.307 2.227 4.92l25.32-.027c1.773 0 2.373-.76 2.067-2.347-.24-1.253-.587-2.493-.933-3.72l-6.373-23.427c-.36-1.36-1.16-2.773.28-4.4h7.44c7.907.093 6.253-.907 8.467 6.387l7.373 25.133c.507 1.747 1.48 2.44 3.187 2.427l23.68-.027c2.12-.013 2.52-.6 1.92-2.813l-7.32-27.147c-.32-1.2-1.027-2.373.093-3.96h7.387c7.92.093 6.253-.907 8.48 6.373l7.373 25.147c.493 1.733 1.467 2.44 3.173 2.427l23.68-.027c2.133-.013 2.52-.6 1.933-2.813l-7.32-27.147c-.333-1.187-1.027-2.373.08-3.973l11.227-.013c3.133-.04 3.347-.213 3.373-3.187l.013-21.107c0-.64-.04-1.28-.147-1.907-.16-.947-.76-1.507-1.72-1.547-1.48-.067-2.987-.013-4.467-.12-2.933-.2-5.933.56-9.027-.627 2.307-11.053 6.2-21.6 8.36-32.613-6.787-.693-23.64-.6-28.627.133l-7.547 25.627c-2.667 8.867-.547 7.347-10.213 7.453-2.2.027-4.573.573-6.88-.827l8.667-32.187c-.733-.267-1.12-.547-1.52-.547l-24.947-.107c-1.867-.013-2.507 1.027-2.96 2.64l-6.253 21.467-2.413 7.947c-.28.92-.893 1.48-1.8 1.507-4.44.147-8.893.453-13.693-.253 1.987-11.28 6.32-21.733 8.227-33.253h-26.653c-1.24 0-1.92.707-2.253 1.813l-3.32 11.013-5.187 17.787c-.867 2.88-.973 2.907-3.973 3.04H1435.3a20.26 20.26 0 0 1-1.28-.04c-1.613-.12-2.053-.987-1.147-2.56l29.067-50.4c1.293-2.24 1.587-2.32 4.107-1.72l20.493 4.973c3.507.8 6.893 2.28 10.6 2.147 2.973-2.573 4.253-6.267 6.213-9.493 2.867-4.693 5.493-9.533 8.453-14.733-11.067-3.733-22.2-5.653-33.093-9.24 1.6-4.573 4.28-8.16 6.44-12.013.413-.733 1.32-1.067 2.24-.893a72.26 72.26 0 0 1 3.76.773l24.813 6.107c4.293 1.16 4.32.76 6.413-2.893l10.213-17.72c.6-1.053 1.573-2.04.893-3.693l-15.893-4.227c-5.4-1.56-11.027-2.413-16.627-4.813l5.907-10.333c1.32-2.227 1.56-2.347 4.12-1.747l19.267 4.6c3.92.92 7.733 2.4 11.827 2.467 3.24-2.92 4.64-7.04 6.84-10.627 2.667-4.333 5.133-8.8 7.653-13.16-1.853-1.6-3.8-1.773-5.627-2.253l-25.347-6.693c-1.627-.427-2.04-1.413-1.227-2.853l6.2-10.973c-.44-.587-.627-1.027-.96-1.227l-21-12.227c-1.12-.64-1.96-.36-2.667.693-2.44 3.627-4.12 7.76-6.747 11.12-2.253-.573-3.173-2.12-4.347-3.293l-17.587-17.707c-2.987-2.987-3.04-2.973-5.307.907l-9.253 16.08c-3.267 5.693-3.4 4.48.907 9.027l16.827 17.547c.88.933 1.773 1.853 2.6 2.813.6.693.787 1.56.32 2.36-2.227 3.787-4 7.88-7.16 11.547l-24.347-24.533zm-317.678 706.738l.043-817.75c.1-2.547.635-3.187 2.888-3.267l31.25-1.12c13.6-.347 27.163-.947 40.704-2.187 2.12-.187 4.263-.147 6.385-.32l26.07-2.307 26.032-2.813 32.893-4.52c11.568-1.76 23.13-3.64 34.627-5.827 11.92-2.28 23.773-4.867 35.613-7.533 26.84-6.04 53.227-13.627 79.133-22.893 23.307-8.347 46.027-18.04 67.88-29.68 20.187-10.747 39.28-23.16 57.067-37.52 8.787-7.107 17.067-14.813 24.867-23l5.28-5.587c2.96-3 3.44-3.173 7.213-1.32 3.827 1.893 7.547 3.987 11.253 6.08l60.68 35.56 48.907 29.093 52.627 31.6 39.893 24.213c.733.44 1.467.893 2.16 1.373 1.24.853 1.427 2.067 1.013 3.387-.32 1.013-.773 1.987-1.187 2.96l-691.336 1652.236c-.103.24-.687.36-1.052.373-.517.013-.753-.333-.763-.853l-.135-6.387-.005-812" fill="#ad010c"/><path d="M722.794 596.898c1.6 6.427 4.332 12.413 6.533 18.573l6.78 18.6 6.9 18.56 6.857 18.587 6.796 18.6 6.897 18.56 6.88 18.907c-1.897.8-3.577.587-5.17.613l-65.877.88c-3.623.04-3.683.053-5.097-3.4L579.15 443.27c-1.028-2.52-2.445-4.933-2.748-7.707 1.787-.84 3.503-.507 5.167-.507l78.044-.013c2.876-.053 3.84-.067 4.893 3.547l26.605 89.386c1.195 3.947 1.237 3.987 5.225 4.013l42.857.173 156.724.36 83.158.28c2.77.013 5.54.12 8.3.173 1.593.027 2.277-.853 2.275-2.373l.024-5.12.003-81.88.05-5.12c.023-1.227.652-2 1.88-2.107 1.06-.107 2.13-.067 3.195-.067h59.492c1.065 0 2.156-.067 3.184.133.48.107 1 .72 1.215 1.227.237.56.18 1.253.192 1.893l.015 4.48-.015 272.506c-.003 9.027 1.088 7.733-7.817 7.76l-53.736.013c-1.28 0-2.56.04-3.837-.027-2-.107-2.453-.613-2.544-2.813-.06-1.48-.024-2.973-.024-4.467V601.23c.052-5.107-.053-4.893-4.908-4.893l-99.793.013c-52.03 0-104.06-.013-156.1.013-2.3 0-4.65-.413-7.356.533m1018.82 120.08c.507 2.187.307 4.027.32 5.813l.027 51.187.12 907.8c.013 6.72-1.693 12.187-5.4 17.747-13.947 21-29.693 40.587-46.053 59.72-.533.627-.947 1.373-1.213 1.787-2.107-.507-1.8-1.72-1.84-2.707-.053-1.693-.013-3.4-.013-5.107l-.08-902.064c0-5.453 1.04-10.427 3.16-15.427l47.92-113.613c.693-1.64.947-3.613 3.053-5.147M859.2 971.48c-.457 1.872.617 3.373 1.17 4.92l22.965 63.7c.3.8.7 1.568.908 2.388.37 1.453 1.292 2.15 2.728 2.18l5.757.03 156.108.01c8.853.004 7.888-1 7.915 7.755l.004 36.468c-.083 4.052-.092 4.06-4.445 4.133-1.065.02-2.132.003-3.2.003-67.604 0-135.206.017-202.8-.02-8.65-.005-6.56 1.237-9.803-6.847l-116.05-289.6c2.067-1.053 3.965-.693 5.76-.68l95.96.493 231.566 1.72c1.276.013 2.57.013 3.813.253.473.08.988.733 1.195 1.253.225.56.152 1.253.152 1.893l-.012 41.587c-.007 2.933-.313 3.173-3.312 3.253-1.705.04-3.412.013-5.12.013H814.722c-.732 1.187-.62 1.973-.317 2.813l25.377 70.306c.357.987.944 1.893 1.576 3.133h119.53c6.343 0 5.775-.48 5.784 5.907l.003 36.467c0 1.28.035 2.563-.06 3.836-.088 1.152-.67 2.027-1.94 2.08-1.703.075-3.4.072-5.116.073-31.136.003-62.272-.01-93.408.025-2.313.003-4.685-.44-6.94.46m766.545 31.685l-.013 815.95c0 7.36.8 5.68-4.547 10.307l-46.88 39.613c-.6.507-1.12 1.373-2.147.747-.92-.56-.6-1.493-.627-2.28-.08-1.48-.027-2.987-.027-4.467l-.053-726.806c0-4.357.787-8.312 2.493-12.348l48.747-116.006c.547-1.324.813-2.792 3.053-4.7m-566.843 634.258c-4.285-5.933-178.593-439.566-188.58-466.753-.348-.95-1.007-1.908-.507-3.024 1.04-1.016 2.357-.68 3.56-.68l52.463-.013c3.3.096 3.377.072 4.547 3.287l74.67 206.68c.633 1.747.807 3.787 2.505 5.2 1.483-.747.628-2.173.607-3.173l-2.02-87.6-1.912-92.733-.66-24.297-.072-5.115c-.024-1.64.945-2.2 2.408-2.228l4.48-.023 46.064.01c1.503-.017 2.433.535 2.427 2.192l.024 6.397.001 461.878m743.638-790.176c2.333 1.28 2.533 3.093 3.173 4.547 8.067 18.133 14.6 36.827 20.227 55.84 8.16 27.596 14.507 55.63 19.667 83.942 4.773 26.217 8.64 52.56 11.707 79.033 2.573 22.24 4.613 44.52 6.307 66.845 2.52 33.397 3.653 66.845 4.347 100.32.427 20.904.333 41.803-1 62.667-1.067 16.805-2.587 33.58-4.507 50.325-2.12 18.427-4.907 36.747-7.787 55.067-5.373 34.2-14.12 67.52-25.04 100.32-7.147 21.427-15 42.587-23.8 63.4-.573 1.373-1.12 2.76-1.773 4.093-.107.213-.72.2-1.107.227-.12 0-.333-.24-.347-.387-.067-.427-.053-.853-.067-1.28v-724.96m-294.04 419.307l-.053 634.637c0 9.373 1.507 6.96-6.893 11.6-13.24 7.307-26.773 14.053-40.48 20.467l-6.187 2.787c-1.573-1.093-1.04-2.44-1.107-3.6-.093-1.48-.027-2.973-.027-4.467l-.08-526.44c0-5.027.947-9.6 2.88-14.187l48.533-115.412c.693-1.66.84-3.727 3.413-5.387m-169.465 711.332c-.773-2.12-.427-4.28-.427-6.387l-.04-296.906c0-3.453.347-6.693 1.72-9.947l50.267-119.533c.333-.787.573-1.627.987-2.36.133-.24.707-.267 1.08-.32.133-.013.413.213.413.333a41.27 41.27 0 0 1 .067 2.56l-.013 407.6c-.013 10.027 1.453 7.72-7.707 10.987-13.453 4.787-27.093 8.973-40.813 12.92-1.787.52-3.573 1.307-5.533 1.053m-142.17 21.6l82.365-196.04c1.833.52 1.253 1.56 1.253 2.253v182.32c-.112 1.933-.64 2.533-2.647 2.933-1.043.213-2.108.307-3.164.453l-46.3 5.827c-10.127 1.12-20.288 2.16-31.5 2.253M528.315 717.55l12.34 29.373 38.012 90.08c1.8 4.227 2.588 8.413 2.587 12.973l-.056 904.038c0 2.133-.1 4.267-.203 6.387-.005.107-.33.213-.6.373-1.22.147-1.683-.96-2.313-1.68-17.565-20.36-34.344-41.32-48.817-64.04-1.688-2.653-2.665-5.24-2.424-8.36.13-1.693.023-3.413.023-5.12l.04-957.784c.003-2.067.125-4.12.193-6.187l1.207-.053m114.568 285.244c2.4 1.907 2.647 3.693 3.288 5.22l48.753 116.012c1.78 4.22 2.52 8.423 2.52 12.983l-.053 725.446a203.87 203.87 0 0 1-.1 6.4c-.028.88-1.167 1.467-1.82.92l-7.775-6.613-26.092-21.627-15.98-13.787c-1.933-1.64-3.04-3.453-2.763-6.067.155-1.48.025-2.987.025-4.48v-814.407m-176.94-154.83v726.038c-1.9-.467-2.015-2.093-2.507-3.253-11.78-27.893-21.9-56.373-30.868-85.293-8.657-27.947-14.704-56.44-19.412-85.28-3.47-21.267-6.244-42.6-8.48-64.013-3.55-33.98-4.725-68.058-3.833-102.206l1.416-47.313c1.045-22.568 2.407-45.12 4.343-67.64 1.6-18.48 3.36-36.94 5.637-55.343 6.333-51.227 15.05-102.006 29.36-151.697 5.84-20.28 12.655-40.227 21.204-59.547.604-1.36 1.27-2.693 1.937-4.027.057-.12.33-.12 1.204-.427m294.37 418.332c2.392 2.132 2.76 4.085 3.484 5.805l48.993 116.636c1.704 4.04 2.392 8.04 2.388 12.373l-.052 527.772c0 2.28-.105 4.56-.16 6.693-1.756.653-2.845-.267-3.943-.773-15.853-7.347-31.477-15.16-46.772-23.627-.745-.4-1.468-.867-2.23-1.24-1.313-.667-1.7-1.76-1.687-3.147.032-1.907-.003-3.827-.003-5.747l-.02-634.746m169.413 711.573c-1.83.347-3.436-.4-5.03-.867-14.727-4.267-29.347-8.867-43.83-13.907-.804-.28-1.57-.707-2.393-.893-2.35-.507-2.992-2.053-2.86-4.24.1-1.48.016-2.973.016-4.467V1542.36c1.995-.067 2.02 1.413 2.48 2.507l49.724 118.346c1.604 3.773 2.5 7.533 2.487 11.693l-.08 296.746c0 2.067.444 4.213-.516 6.213M988.23 1803.4c.8.44 1.305.547 1.42.827l81.496 193.666c.135.32-.117.8-.243 1.52-5.657.04-11.344-.387-17.025-.893-13.795-1.24-27.575-2.613-41.295-4.533l-20.892-2.88c-3.063-.453-3.368-.933-3.455-4.2-.028-1.067-.008-2.133-.008-3.2V1803.4M1451.85 466.03l24.347 24.533c3.16-3.667 4.933-7.76 7.16-11.547.467-.8.28-1.667-.32-2.36-.827-.96-1.72-1.88-2.6-2.813l-16.827-17.547c-4.307-4.547-4.173-3.333-.907-9.027l9.253-16.08c2.267-3.88 2.32-3.893 5.307-.907l17.587 17.707c1.173 1.173 2.093 2.72 4.347 3.293 2.627-3.36 4.307-7.493 6.747-11.12.707-1.053 1.547-1.333 2.667-.693l21 12.227c.333.2.52.64.96 1.227l-6.2 10.973c-.813 1.44-.4 2.427 1.227 2.853l25.347 6.693c1.827.48 3.773.653 5.627 2.253l-7.653 13.16c-2.2 3.587-3.6 7.707-6.84 10.627-4.093-.067-7.907-1.547-11.827-2.467l-19.267-4.6c-2.56-.6-2.8-.48-4.12 1.747-1.947 3.267-3.787 6.613-5.907 10.333 5.6 2.4 11.227 3.253 16.627 4.813 5.32 1.533 10.693 2.853 15.893 4.227.68 1.653-.293 2.64-.893 3.693l-10.213 17.72c-2.093 3.653-2.12 4.053-6.413 2.893-8.227-2.213-16.533-4.093-24.813-6.107a72.26 72.26 0 0 0-3.76-.773c-.92-.173-1.827.16-2.24.893-2.16 3.853-4.84 7.44-6.44 12.013 10.893 3.587 22.027 5.507 33.093 9.24l-8.453 14.733c-1.96 3.227-3.24 6.92-6.213 9.493-3.707.133-7.093-1.347-10.6-2.147l-20.493-4.973c-2.52-.6-2.813-.52-4.107 1.72l-29.067 50.4c-.907 1.573-.467 2.44 1.147 2.56a20.26 20.26 0 0 0 1.28.04h56.947c3-.133 3.107-.16 3.973-3.04l5.187-17.787 3.32-11.013c.333-1.107 1.013-1.813 2.253-1.813h26.653c-1.907 11.52-6.24 21.973-8.227 33.253 4.8.707 9.253.4 13.693.253.907-.027 1.52-.587 1.8-1.507l2.413-7.947 6.253-21.467c.453-1.613 1.093-2.653 2.96-2.64l24.947.107c.4 0 .787.28 1.52.547l-8.667 32.187c2.307 1.4 4.68.853 6.88.827 9.667-.107 7.547 1.413 10.213-7.453l7.547-25.627c4.987-.733 21.84-.827 28.627-.133-2.16 11.013-6.053 21.56-8.36 32.613 3.093 1.187 6.093.427 9.027.627 1.48.107 2.987.053 4.467.12.96.04 1.56.6 1.72 1.547.107.627.147 1.267.147 1.907l-.013 21.107c-.027 2.973-.24 3.147-3.373 3.187l-11.227.013c-1.107 1.6-.413 2.787-.08 3.973l7.32 27.147c.587 2.213.2 2.8-1.933 2.813l-23.68.027c-1.707.013-2.68-.693-3.173-2.427l-7.373-25.147c-2.227-7.28-.56-6.28-8.48-6.373-2.547-.027-5.093 0-7.387 0-1.12 1.587-.413 2.76-.093 3.96l7.32 27.147c.6 2.213.2 2.8-1.92 2.813l-23.68.027c-1.707.013-2.68-.68-3.187-2.427l-7.373-25.133c-2.213-7.293-.56-6.293-8.467-6.387-2.547-.027-5.093 0-7.44 0-1.44 1.627-.64 3.04-.28 4.4l6.373 23.427c.347 1.227.693 2.467.933 3.72.307 1.587-.293 2.347-2.067 2.347l-25.32.027c-1.427-1.613-1.76-3.293-2.227-4.92l-7.533-25.76c-.92-3.12-1-3.213-3.827-3.227-19.627-.013-39.24.027-58.867.067-.333 0-.667.333-1.013.52-.6 1.467.533 2.44 1.12 3.453l27.48 47.64c.32.547.667 1.093.96 1.653.813 1.573 2.093 1.96 3.747 1.56l13.027-3.213 16.12-4c1.333-.333 2.613-.453 3.373.907l12.853 22.773c.08.147-.067.413-.173 1l-31.707 8.453c-.653 1.573.16 2.627.787 3.72l2.547 4.427c3.267 5.653 3.28 5.653 9.893 4.027l21.72-5.36c1.44-.347 2.907-.64 4.373-.933.92-.187 1.64.227 2.213.933a8.16 8.16 0 0 1 .72 1.053l12.36 21.493c-.827 1.84-2.413 1.867-3.773 2.227l-24.72 6.493c-1.44.373-2.947.533-4.293 2.08l5.947 10.36c.907 1.64 2.173 1.84 3.76 1.453l17.36-4.333 11.787-2.92c1.613-.4 2.813-.093 3.72 1.52l11.8 20.507c1.107 1.92.8 2.64-1.293 3.2l-20.4 5.333-10.04 2.773c1.32 5.027 4.787 8.707 6.627 13.173-3.027 2.96-17.28 11.387-23.72 13.96l-6.467-10.867c-.947-1.56-1.747-1.707-2.987-.48l-16.693 16.787-4.533 4.52c-1.307 1.24-2.08 1.16-2.973-.373l-11.84-20.48c-1.293-2.253-1.267-2.507.56-4.427l16.8-17.573c6.72-7.147 6.213-4.44 1.373-13.12-1-1.827-1.68-3.933-3.96-5.333l-24.093 24.307-13.4-23.16c-.107-.187-.16-.387-.267-.587-.427-.84-.347-1.653.28-2.347.987-1.12 2.013-2.2 3.053-3.28l18.16-18.933c2-2.12 1.947-2.253.48-4.973-.107-.187-.187-.387-.307-.56-2.08-2.933-3.133-6.507-5.773-9.053-3.573 1.267-5.453 4.52-8 6.96-4.773 4.573-9.32 9.387-14 14.053-2.773 2.76-2.84 2.733-4.947-.867l-10.227-17.72c-2.067-3.6-2.067-3.653.653-6.507l17.267-18.027c.88-.92 1.733-1.88 2.667-2.76 1.293-1.227 1.347-2.48.453-3.987l-27.533-47.6c-.947-1.627-1.56-3.533-3.267-4.627-1.147.733-1.68 1.907-2.32 3.013l-27.52 47.613a45.05 45.05 0 0 0-1.24 2.227c-.547 1.04-.48 2.027.36 2.92l7.053 7.413 13.733 14.32c2.173 2.293 2.2 2.467.8 4.933l-12.34 21.378c-1.893.373-2.6-.88-3.467-1.733l-19.853-19.973c-1.627-1.613-2.24-1.547-3.373.4l-5.933 10.56c1.693 3.827 5.16 6.16 7.867 9.107 4.613 5.027 9.427 9.88 14.147 14.8.88.933 1.88 1.867 1.053 3.32l-13.613 23.72-24.333-24.52c-3.173 3.547-4.747 7.56-6.992 11.133-.605.96-.573 2.04.263 2.947l3.503 3.72 17.707 18.493c1.76 1.867 1.787 2.12.453 4.427l-11.507 19.933c-1.347 2.293-1.787 2.333-3.787.333l-17.136-17.253c-1.203-1.213-2.385-2.44-3.635-3.6-1.232-1.147-1.972-.987-2.96.64l-4.197 7.173c-.76 1.267-1.272 2.733-3.12 3.76l-23.16-13.373c2.052-4.813 5.177-8.64 7.08-13.44-1.66-1.24-3.54-1.493-5.3-1.96l-25.345-6.653c-2.08-.547-2.34-1.227-1.207-3.213l11.513-19.933c1.452-2.48 1.78-2.587 4.645-1.893l26.067 6.4c1.035.253 2.053.587 3.097.787 1.104.213 2.1.027 2.735-1.067l6.62-11.36c-11.124-3.84-22.292-5.653-32.773-9.213-.257-1.733.595-2.72 1.2-3.773l10.557-18.267c1.637-2.787 1.96-2.96 5.148-2.2l22.967 5.64c2.455.587 5.157 1.8 7.387 1.253 2.42-.587 2.985-3.88 4.28-6.04 1.2-1.96 2.736-3.787 3.15-6.533-3.34-1.853-7.168-2.187-10.73-3.267-3.463-1.053-7-1.827-10.5-2.76l-10.865-2.947c-.348-1.2.024-1.947.46-2.693l11.524-19.933c1.495-2.547 1.616-2.56 4.605-1.84l25.463 6.187 3.093.8c1.613.427 2.933.12 3.773-1.467.4-.76.853-1.48 1.28-2.213l26.853-46.507c.533-.92 1.107-1.84 1.493-2.827.32-.827.213-1.72-.973-1.8-1.267-.093-2.547-.093-3.827-.093-17.493-.013-34.987 0-52.473 0h-3.2c-1.74-.04-2.683.773-3.17 2.467l-7.483 25.787c-1.916 6.853-1.695 5.613-7.788 5.68-6.6.08-13.224.027-19.836-.027-2.03-.027-2.64-.827-2.1-2.853l5.983-22.213c.657-2.64 2.12-5.173 1.617-8.053-2.744-1.627-5.748-.693-8.6-.733-7.4-.093-5.787-.8-7.932 6.2l-7.365 25.147c-.487 1.707-1.352 2.547-3.096 2.547-7.9-.013-15.783.027-23.673-.013-2.2-.013-2.657-.627-2.1-2.707l6.5-24.053c.56-2.2 1.855-4.347 1.212-6.773-.476-.12-.887-.333-1.295-.333-4.24.093-8.504-.547-12.723.347-2.173 3.493-2.66 7.547-3.83 11.36l-5.84 19.6c-.728 2.387-.94 2.533-3.677 2.56h-23.035c-2.2-.013-2.66-.627-2.107-2.693l6.5-24.053c.564-2.213 1.852-4.36 1.103-7.2-3.98 0-8.02.027-12.056-.013-2.392-.04-2.84-.387-2.852-2.413l-.003-23.027c.005-1.507.773-2.36 2.336-2.373l7.677-.053c1.673-.053 3.42.373 5.4-.84l-8.777-32.84 28.8.027 6.892 23.6 2.36 7.973c.4 1.52 1.373 2.013 2.773 2.067.213.013.427.027.64.013 3.808-.187 7.65.507 11.425-.453.728-3.92-1.265-7.347-2.14-10.947-1.756-7.227-3.863-14.36-5.784-21.387 1.364-1.187 2.68-.88 3.907-.893h21.115c3.568.027 3.632.053 4.715 3.707l6.98 23.933 1.285 4.28c.34 1.227 1.237 1.64 2.36 1.72.85.067 1.7.107 2.556.04 3.37-.253 6.797.627 10.12-.52.773-3.533-1.08-6.56-1.903-9.773l-5.165-19.12c-.33-1.227-.684-2.48-.237-3.88 2.66-.773 5.444-.347 8.2-.373l16.636-.013c3.048.027 3.227.12 4.065 2.933l6.825 23.293c.7 2.413.643 5.4 2.72 6.92 1.876 1.387 4.56.52 6.883.52h50.548c1.613 0 3.36.493 4.813-.547.56-1.307-.32-2.12-.827-2.987l-27.8-48.187c-.32-.547-.653-1.093-.947-1.667-.827-1.533-1.96-1.893-3.707-1.453l-25.443 6.253c-.828.2-1.633.507-2.465.68-3.623.8-3.837.76-5.643-2.347l-12.072-20.92c1.06-1.627 2.607-1.733 4.02-2.107l24.725-6.48c1.22-.32 2.397-.8 3.93-1.32-.373-2.507-1.893-4.28-2.963-6.24-1.017-1.867-2.1-3.72-3.208-5.533-.617-1-1.624-1.32-2.763-1.08l-8.1 1.853-21.708 5.4c-1.3.32-2.537.547-3.348-.867-4.335-7.573-9.077-14.907-12.853-22.8-.084-.173-.01-.413-.01-.973l25.787-6.813c1.853-.48 3.713-.947 5.548-1.507 1.03-.307 1.08-1.133.776-2.013a2.64 2.64 0 0 0-.275-.573c-2.15-3.413-3.664-7.213-6.35-10.307-4.14-.507-7.868 1.333-11.757 2.173-6.248 1.333-12.408 3.067-18.628 4.533-3.785.893-3.915.827-5.684-2.213L1258 476c.896-1.893 2.54-1.853 3.884-2.213l25.348-6.64c1.025-.267 2.097-.4 3.245-1.667-.232-2.267-2.043-4.173-3.16-6.333-1.07-2.08-2.3-4.067-3.432-6.053 3.177-3.12 16.325-10.973 23.523-14.067 1.857 1.76 2.74 4.227 4.104 6.36 1.235 1.933 2.384 3.92 3.584 5.907 2.325-.547 3.364-2.28 4.673-3.587l18.507-18.6c1.333-1.333 2.12-1.28 2.987.213l12.2 21.013c.96 1.627.373 2.747-.773 3.933l-15.92 16.64c-2.04 2.147-5.16 3.867-5.7 6.68-.627 3.213 2.617 5.573 3.95 8.413.707 1.507 1.347 3.173 3.333 4.36l23.68-23.853c2.28 1.827 3.08 4.107 4.253 6.107l9.28 16.053c1.293 2.267 1.28 2.467-.56 4.4l-16.773 17.613c-6.84 7.36-6.387 4.227-1.453 13.053 3.92 7.013 3.027 6.8 8.867.947l17.133-17.253c.573-.587 1.267-1.04 1.747-1.44 1.627.187 1.853 1.4 2.347 2.24l10.56 18.267c2.053 3.6 2.053 3.653-.667 6.533l-17.24 18.027c-.893.92-1.747 1.88-2.68 2.76-1.293 1.213-1.36 2.453-.453 3.973l28.493 49.253c.627 1.093 1.373 2.12 2.067 3.16 1.613-.773 2.08-2.267 2.8-3.52l28.453-49.28c.787-1.307.44-2.413-.56-3.427l-3.107-3.227-17.68-18.507c-1.867-1.96-1.893-2.2-.627-4.427l12.173-21.027c.187-.32.64-.48.987-.733 1.653.187 2.413 1.613 3.427 2.627l16.68 16.8c1.053 1.067 2.093 2.133 3.227 3.107.733.627 1.64.627 2.16-.267l6.867-11.76-22.68-23.733c-.92-.973-1.493-1.973-.667-3.387l13.453-23.4" fill="#fff"/></svg>