<?xml version="1.0" encoding="UTF-8" standalone="no"?>
<!-- Created with Inkscape (http://www.inkscape.org/) -->

<svg
   xmlns:dc="http://purl.org/dc/elements/1.1/"
   xmlns:cc="http://creativecommons.org/ns#"
   xmlns:rdf="http://www.w3.org/1999/02/22-rdf-syntax-ns#"
   xmlns:svg="http://www.w3.org/2000/svg"
   xmlns="http://www.w3.org/2000/svg"
   xmlns:sodipodi="http://sodipodi.sourceforge.net/DTD/sodipodi-0.dtd"
   xmlns:inkscape="http://www.inkscape.org/namespaces/inkscape"
   width="45.9412mm"
   height="15.683844mm"
   viewBox="0 0 162.78378 55.572674"
   id="svg2"
   version="1.1"
   inkscape:version="0.91 r13725"
   sodipodi:docname="hev-admin-logo.svg">
  <defs
     id="defs4">
    <clipPath
       id="clip1">
      <path
         id="path4141"
         d="m 243,287 21,0 0,415 -21,0 z m 0,0"
         inkscape:connector-curvature="0" />
    </clipPath>
    <clipPath
       id="clip2">
      <path
         id="path4144"
         d="m 103.1875,287.03516 160.74219,414.49609 c 0,0 -60.09375,-0.98047 -114.67578,-54.03906 C 94.671875,594.43359 85.675781,538.40234 87.160156,482.38281 88.671875,425.375 96.175781,359.42969 99.175781,335.62891 102.17578,311.82812 103.1875,287.03516 103.1875,287.03516 Z m 0,0"
         inkscape:connector-curvature="0" />
    </clipPath>
    <clipPath
       id="clip3">
      <path
         id="path4147"
         d="m 203,287 21,0 0,415 -21,0 z m 0,0"
         inkscape:connector-curvature="0" />
    </clipPath>
    <clipPath
       id="clip4">
      <path
         id="path4150"
         d="m 103.1875,287.03516 160.74219,414.49609 c 0,0 -60.09375,-0.98047 -114.67578,-54.03906 C 94.671875,594.43359 85.675781,538.40234 87.160156,482.38281 88.671875,425.375 96.175781,359.42969 99.175781,335.62891 102.17578,311.82812 103.1875,287.03516 103.1875,287.03516 Z m 0,0"
         inkscape:connector-curvature="0" />
    </clipPath>
    <clipPath
       id="clip5">
      <path
         id="path4153"
         d="m 163,287 21,0 0,415 -21,0 z m 0,0"
         inkscape:connector-curvature="0" />
    </clipPath>
    <clipPath
       id="clip6">
      <path
         id="path4156"
         d="m 103.1875,287.03516 160.74219,414.49609 c 0,0 -60.09375,-0.98047 -114.67578,-54.03906 C 94.671875,594.43359 85.675781,538.40234 87.160156,482.38281 88.671875,425.375 96.175781,359.42969 99.175781,335.62891 102.17578,311.82812 103.1875,287.03516 103.1875,287.03516 Z m 0,0"
         inkscape:connector-curvature="0" />
    </clipPath>
    <clipPath
       id="clip7">
      <path
         id="path4159"
         d="m 123,287 21,0 0,415 -21,0 z m 0,0"
         inkscape:connector-curvature="0" />
    </clipPath>
    <clipPath
       id="clip8">
      <path
         id="path4162"
         d="m 103.1875,287.03516 160.74219,414.49609 c 0,0 -60.09375,-0.98047 -114.67578,-54.03906 C 94.671875,594.43359 85.675781,538.40234 87.160156,482.38281 88.671875,425.375 96.175781,359.42969 99.175781,335.62891 102.17578,311.82812 103.1875,287.03516 103.1875,287.03516 Z m 0,0"
         inkscape:connector-curvature="0" />
    </clipPath>
    <clipPath
       id="clip9">
      <path
         id="path4165"
         d="m 87,287 17,0 0,415 -17,0 z m 0,0"
         inkscape:connector-curvature="0" />
    </clipPath>
    <clipPath
       id="clip10">
      <path
         id="path4168"
         d="m 103.1875,287.03516 160.74219,414.49609 c 0,0 -60.09375,-0.98047 -114.67578,-54.03906 C 94.671875,594.43359 85.675781,538.40234 87.160156,482.38281 88.671875,425.375 96.175781,359.42969 99.175781,335.62891 102.17578,311.82812 103.1875,287.03516 103.1875,287.03516 Z m 0,0"
         inkscape:connector-curvature="0" />
    </clipPath>
    <clipPath
       id="clip11">
      <path
         id="path4171"
         d="m 301,287 21,0 0,415 -21,0 z m 0,0"
         inkscape:connector-curvature="0" />
    </clipPath>
    <clipPath
       id="clip12">
      <path
         id="path4174"
         d="M 462.61328,287.03516 301.87109,701.53125 c 0,0 60.09375,-0.98047 114.67578,-54.03906 54.58204,-53.0586 63.58204,-109.08985 62.09375,-165.10938 -1.51171,-57.00781 -9.01171,-122.95312 -12.01171,-146.7539 -3.00391,-23.80079 -4.01563,-48.59375 -4.01563,-48.59375 z m 0,0"
         inkscape:connector-curvature="0" />
    </clipPath>
    <clipPath
       id="clip13">
      <path
         id="path4177"
         d="m 341,287 21,0 0,415 -21,0 z m 0,0"
         inkscape:connector-curvature="0" />
    </clipPath>
    <clipPath
       id="clip14">
      <path
         id="path4180"
         d="M 462.61328,287.03516 301.87109,701.53125 c 0,0 60.09375,-0.98047 114.67578,-54.03906 54.58204,-53.0586 63.58204,-109.08985 62.09375,-165.10938 -1.51171,-57.00781 -9.01171,-122.95312 -12.01171,-146.7539 -3.00391,-23.80079 -4.01563,-48.59375 -4.01563,-48.59375 z m 0,0"
         inkscape:connector-curvature="0" />
    </clipPath>
    <clipPath
       id="clip15">
      <path
         id="path4183"
         d="m 381,287 22,0 0,415 -22,0 z m 0,0"
         inkscape:connector-curvature="0" />
    </clipPath>
    <clipPath
       id="clip16">
      <path
         id="path4186"
         d="M 462.61328,287.03516 301.87109,701.53125 c 0,0 60.09375,-0.98047 114.67578,-54.03906 54.58204,-53.0586 63.58204,-109.08985 62.09375,-165.10938 -1.51171,-57.00781 -9.01171,-122.95312 -12.01171,-146.7539 -3.00391,-23.80079 -4.01563,-48.59375 -4.01563,-48.59375 z m 0,0"
         inkscape:connector-curvature="0" />
    </clipPath>
  </defs>
  <sodipodi:namedview
     id="base"
     pagecolor="#ffffff"
     bordercolor="#666666"
     borderopacity="1.0"
     inkscape:pageopacity="0.0"
     inkscape:pageshadow="2"
     inkscape:zoom="3.959798"
     inkscape:cx="51.169501"
     inkscape:cy="35.846135"
     inkscape:document-units="px"
     inkscape:current-layer="surface1"
     showgrid="false"
     inkscape:window-width="1920"
     inkscape:window-height="1017"
     inkscape:window-x="-8"
     inkscape:window-y="-8"
     inkscape:window-maximized="1"
     fit-margin-top="0"
     fit-margin-left="0"
     fit-margin-right="0"
     fit-margin-bottom="0" />
  <metadata
     id="metadata7">
    <rdf:RDF>
      <cc:Work
         rdf:about="">
        <dc:format>image/svg+xml</dc:format>
        <dc:type
           rdf:resource="http://purl.org/dc/dcmitype/StillImage" />
        <dc:title></dc:title>
      </cc:Work>
    </rdf:RDF>
  </metadata>
  <g
     inkscape:label="Ebene 1"
     inkscape:groupmode="layer"
     id="layer1"
     transform="translate(-158.51692,-65.296971)">
    <g
       id="surface1"
       transform="matrix(0.20174706,0,0,0.20174706,62.811799,8.3439229)">
      <path
         id="path4201"
         d="m 587.96499,553.7552 0,-247.92969 c 0,0 27.49074,-1.50058 41.453,-6.377 13.96226,-4.8764 34.46839,-16.12782 34.46839,-16.12782 l 37.52573,18.00306 -113.44712,252.43145"
         style="fill:#eb1923;fill-opacity:1;fill-rule:nonzero;stroke:none"
         inkscape:connector-curvature="0" />
      <path
         id="path4203"
         d="m 587.96499,300.89535 0,256.86109 -0.13844,-0.30052 0,-4.72214 -113.4448,-252.43146 37.52343,-18.00305 c 0,0 20.50613,11.25141 34.4707,16.12781 13.96225,4.87642 41.45067,6.37701 41.45067,6.37701 l 0,-3.91275 0.13844,0.004"
         style="fill:#009763;fill-opacity:1;fill-rule:nonzero;stroke:none"
         inkscape:connector-curvature="0" />
      <path
         id="path4275"
         d="m 579.97489,408.82587 3.92578,16.83594 -5.68359,1.30078 -2.51953,-10.80469 -2.24219,3.84375 3.92578,16.83594 -5.67969,1.30078 -2.51953,-10.80078 -2.24218,3.83984 3.92578,16.83984 -5.6836,1.29688 -3.55078,-15.23047 -14.4375,4.28516 -1.70703,-5.52344 16.69141,-5.05078 2.24218,-3.84375 -10.71093,3.24219 -1.70313,-5.52344 16.69141,-5.05469 2.23828,-3.84375 -10.70703,3.24219 -1.70703,-5.51953 16.6914,-5.05469 9.19532,-15.76953 -19.0586,0 -12.76562,11.78515 -3.97657,-4.22265 8.1875,-7.5625 -4.48046,0 -12.76563,11.78515 -3.97656,-4.22265 8.1914,-7.5625 -4.48437,0 -12.76563,11.78515 -3.97656,-4.22265 11.54688,-10.66016 -10.96485,-10.23828 3.97657,-4.22266 12.76562,11.78516 4.48047,0 -8.1875,-7.5625 3.97656,-4.22266 12.76563,11.78516 4.48047,0 -8.1875,-7.5625 3.97656,-4.22266 12.76562,11.78516 18.39063,0 -9.52735,-16.34375 -16.6914,-5.05469 1.70703,-5.51953 10.70703,3.24219 -2.24219,-3.84375 -16.6914,-5.05469 1.70703,-5.51953 10.71094,3.23828 -2.24219,-3.84375 -16.69141,-5.05078 1.70703,-5.52344 15.09766,4.57032 3.47266,-14.51954 5.67968,1.30079 -3.92578,16.83593 2.24219,3.84375 2.51953,-10.80468 5.68359,1.30078 -3.92578,16.83593 2.24219,3.84375 2.51563,-10.80468 5.68359,1.30078 -3.92578,16.83594 9.19922,15.77343 9.52734,-16.34375 -3.92578,-16.83593 5.68359,-1.30079 2.51953,10.80469 2.24219,-3.84375 -3.92578,-16.83984 5.68359,-1.29688 2.51954,10.80078 2.23828,-3.84375 -3.92578,-16.83593 5.68359,-1.29688 3.55078,15.23047 14.4375,-4.28516 1.70703,5.52344 -16.6914,5.05078 -2.24219,3.84375 10.71094,-3.24218 1.70312,5.52343 -16.6875,5.05078 -2.24219,3.84375 10.70703,-3.24218 1.70704,5.52343 -16.69141,5.05469 -9.19531,15.76953 19.05859,0 12.76563,-11.78515 3.97656,4.22265 -8.1875,7.5625 4.48047,0 12.76562,-11.78515 3.97656,4.22265 -8.1914,7.5625 4.48437,0 12.76563,-11.78515 3.97656,4.22265 -11.54687,10.66016 10.96875,10.23828 -3.98047,4.22266 -12.76563,-11.78516 -4.48047,0 8.19141,7.5625 -3.98047,4.22266 -12.76562,-11.78516 -4.48047,0 8.1914,7.5625 -3.98047,4.22266 -12.76562,-11.78516 -18.39063,0 9.52735,16.34375 16.6914,5.05078 -1.70312,5.52344 -10.71094,-3.24219 2.24219,3.84375 16.69141,5.05469 -1.70704,5.51953 -10.70703,-3.24219 2.23828,3.84375 16.69141,5.05469 -1.70312,5.51953 -15.09766,-4.5664 -3.47266,14.51953 -5.68359,-1.30078 3.92578,-16.83594 -2.24219,-3.84375 -2.51953,10.80469 -5.68359,-1.30079 3.92969,-16.83593 -2.24219,-3.84375 -2.51953,10.80468 -5.6836,-1.30078 3.92578,-16.83593 -9.19921,-15.77344 -9.52735,16.34375"
         style="fill:#ffffff;fill-opacity:1;fill-rule:nonzero;stroke:none"
         inkscape:connector-curvature="0" />
      <text
         xml:space="preserve"
         style="font-style:normal;font-variant:normal;font-weight:600;font-stretch:normal;font-size:204.16749573px;line-height:125%;font-family:'Segoe UI';-inkscape-font-specification:'Segoe UI, Semi-Bold';text-align:start;letter-spacing:0px;word-spacing:0px;writing-mode:lr-tb;text-anchor:start;fill:#2d2d2d;fill-opacity:1;stroke:none;stroke-width:1px;stroke-linecap:butt;stroke-linejoin:miter;stroke-opacity:1"
         x="786.96246"
         y="445.10336"
         id="text4381"
         sodipodi:linespacing="125%"
         transform="scale(0.87914445,1.1374695)"><tspan
           sodipodi:role="line"
           id="tspan4383"
           x="786.96246"
           y="445.10336">ADMIN</tspan></text>
    </g>
  </g>
</svg>
