<?xml version="1.0" standalone="no"?>
<!DOCTYPE svg PUBLIC "-//W3C//DTD SVG 20010904//EN"
 "http://www.w3.org/TR/2001/REC-SVG-20010904/DTD/svg10.dtd">
<svg version="1.0" xmlns="http://www.w3.org/2000/svg"
 width="200.000000pt" height="200.000000pt" viewBox="0 0 200.000000 200.000000"
 preserveAspectRatio="xMidYMid meet">
<metadata>
Created by potrace 1.11, written by Peter Selinger 2001-2013
</metadata>
<g transform="translate(0.000000,200.000000) scale(0.100000,-0.100000)"
fill="#000000" stroke="none">
<path d="M456 1927 c-71 -40 -134 -79 -139 -88 -7 -12 -3 -40 17 -103 25 -78
27 -96 23 -193 -3 -60 -14 -191 -26 -293 -11 -102 -21 -213 -21 -247 l0 -63
-105 0 -105 0 0 -95 c0 -230 82 -426 242 -581 120 -117 247 -187 426 -236 111
-31 353 -31 464 0 179 49 306 119 426 236 160 155 242 351 242 581 l0 95 -105
0 c-77 0 -105 3 -105 13 0 57 -22 345 -29 392 -37 226 -36 280 10 403 33 92
32 94 -101 164 -47 25 -101 55 -120 67 -49 29 -82 26 -137 -13 -68 -48 -101
-63 -177 -80 -83 -20 -180 -20 -266 -2 -74 15 -113 33 -183 82 -27 20 -59 34
-75 34 -15 -1 -85 -33 -156 -73z"/>
</g>
</svg>
